<svg width="32" height="32" viewBox="0 0 32 32" fill="none" xmlns="http://www.w3.org/2000/svg">
<path d="M19 5.33334H13C8.75736 5.33334 6.63604 5.33334 5.31802 6.67228C4 8.01122 4 10.1662 4 14.4762V17.5238C4 21.8338 4 23.9888 5.31802 25.3277C6.63604 26.6667 8.75736 26.6667 13 26.6667H19C23.2426 26.6667 25.364 26.6667 26.682 25.3277C28 23.9888 28 21.8338 28 17.5238V14.4762C28 10.1662 28 8.01122 26.682 6.67228C25.364 5.33334 23.2426 5.33334 19 5.33334Z" stroke="white" stroke-opacity="0.6"/>
<path d="M9.3335 10.6667H13.3335" stroke="white" stroke-opacity="0.6" stroke-linecap="round"/>
<path d="M20 19.3333V18C20 17.0572 20 16.5858 20.2929 16.2929C20.5858 16 21.0572 16 22 16H26C26.9428 16 27.4142 16 27.7071 16.2929C28 16.5858 28 17.0572 28 18V19.3333C28 20.2762 28 20.7476 27.7071 21.0405C27.4142 21.3333 26.9428 21.3333 26 21.3333H22C21.0572 21.3333 20.5858 21.3333 20.2929 21.0405C20 20.7476 20 20.2762 20 19.3333Z" stroke="white" stroke-opacity="0.6"/>
</svg>
