<svg width="32" height="32" viewBox="0 0 32 32" fill="none" xmlns="http://www.w3.org/2000/svg">
<path d="M12 8C12 8.52529 12.1035 9.04543 12.3045 9.53073C12.5055 10.016 12.8001 10.457 13.1716 10.8284C13.543 11.1999 13.984 11.4945 14.4693 11.6955C14.9546 11.8965 15.4747 12 16 12C16.5253 12 17.0454 11.8965 17.5307 11.6955C18.016 11.4945 18.457 11.1999 18.8284 10.8284C19.1999 10.457 19.4945 10.016 19.6955 9.53073C19.8965 9.04543 20 8.52529 20 8C20 7.47471 19.8965 6.95457 19.6955 6.46926C19.4945 5.98396 19.1999 5.54301 18.8284 5.17157C18.457 4.80014 18.016 4.5055 17.5307 4.30448C17.0454 4.10346 16.5253 4 16 4C15.4747 4 14.9546 4.10346 14.4693 4.30448C13.984 4.5055 13.543 4.80014 13.1716 5.17157C12.8001 5.54301 12.5055 5.98397 12.3045 6.46927C12.1035 6.95457 12 7.47472 12 8L12 8Z" stroke="white" stroke-opacity="0.6"/>
<path d="M5.91725 18.5353C5.46233 18.798 5.06361 19.1476 4.74383 19.5644C4.42406 19.9811 4.1895 20.4568 4.05354 20.9642C3.91759 21.4715 3.8829 22.0007 3.95147 22.5215C4.02003 23.0423 4.1905 23.5445 4.45315 23.9994C4.71579 24.4543 5.06546 24.8531 5.4822 25.1728C5.89894 25.4926 6.37458 25.7272 6.88197 25.8631C7.38936 25.9991 7.91856 26.0338 8.43935 25.9652C8.96015 25.8966 9.46233 25.7262 9.91725 25.4635C10.3722 25.2009 10.7709 24.8512 11.0907 24.4345C11.4104 24.0177 11.645 23.5421 11.7809 23.0347C11.9169 22.5273 11.9516 21.9981 11.883 21.4773C11.8145 20.9565 11.644 20.4543 11.3813 19.9994C11.1187 19.5445 10.769 19.1458 10.3523 18.826C9.93555 18.5062 9.45991 18.2717 8.95252 18.1357C8.44513 17.9998 7.91593 17.9651 7.39514 18.0337C6.87435 18.1022 6.37216 18.2727 5.91724 18.5353L5.91725 18.5353Z" stroke="white" stroke-opacity="0.6"/>
<path d="M26.0828 18.5353C26.5377 18.798 26.9364 19.1476 27.2562 19.5644C27.5759 19.9811 27.8105 20.4568 27.9465 20.9642C28.0824 21.4715 28.1171 22.0007 28.0485 22.5215C27.98 23.0423 27.8095 23.5445 27.5469 23.9994C27.2842 24.4543 26.9345 24.8531 26.5178 25.1728C26.1011 25.4926 25.6254 25.7272 25.118 25.8631C24.6106 25.9991 24.0814 26.0338 23.5606 25.9652C23.0399 25.8966 22.5377 25.7262 22.0828 25.4635C21.6278 25.2009 21.2291 24.8512 20.9093 24.4345C20.5896 24.0177 20.355 23.5421 20.2191 23.0347C20.0831 22.5273 20.0484 21.9981 20.117 21.4773C20.1855 20.9565 20.356 20.4543 20.6187 19.9994C20.8813 19.5445 21.231 19.1458 21.6477 18.826C22.0644 18.5062 22.5401 18.2717 23.0475 18.1357C23.5549 17.9998 24.0841 17.9651 24.6049 18.0337C25.1257 18.1022 25.6278 18.2727 26.0828 18.5353L26.0828 18.5353Z" stroke="white" stroke-opacity="0.6"/>
<path fill-rule="evenodd" clip-rule="evenodd" d="M12.0001 7.98705C10.8097 8.49648 9.7273 9.22875 8.81124 10.1448C7.86718 11.0889 7.11831 12.2096 6.60739 13.4431C6.09646 14.6766 5.8335 15.9986 5.8335 17.3337C5.8335 17.7385 5.85767 18.1421 5.9056 18.5424C5.57032 18.7375 5.2658 18.98 5.0012 19.2617C4.88987 18.6266 4.8335 17.9816 4.8335 17.3337C4.83349 15.8673 5.12233 14.4152 5.68351 13.0604C6.24468 11.7056 7.06721 10.4746 8.10413 9.43771C9.14105 8.40079 10.3721 7.57826 11.7269 7.01708C11.8737 6.95624 12.0218 6.8986 12.1708 6.84419C12.0591 7.21422 12.0014 7.59916 12.0001 7.98705ZM20 7.98697C21.1905 8.4964 22.273 9.2287 23.1891 10.1448C24.1331 11.0889 24.882 12.2096 25.3929 13.4431C25.9039 14.6766 26.1668 15.9986 26.1668 17.3337C26.1668 17.7386 26.1426 18.1422 26.0947 18.5425C26.43 18.7376 26.7345 18.9801 26.9991 19.2619C27.1104 18.6267 27.1668 17.9816 27.1668 17.3337C27.1668 15.8673 26.878 14.4152 26.3168 13.0604C25.7556 11.7056 24.9331 10.4746 23.8962 9.43771C22.8593 8.40078 21.6283 7.57825 20.2735 7.01708C20.1265 6.95621 19.9784 6.89855 19.8293 6.84412C19.941 7.21415 19.9987 7.59909 20 7.98697ZM23.1703 25.8943C22.7939 25.8061 22.4317 25.6637 22.0951 25.4709C21.4171 25.9787 20.6768 26.4009 19.8908 26.7265C18.6573 27.2374 17.3353 27.5004 16.0002 27.5004C14.6651 27.5004 13.343 27.2374 12.1095 26.7265C11.3235 26.4009 10.5832 25.9787 9.90518 25.4708C9.56859 25.6636 9.20634 25.8061 8.83 25.8943C9.69923 26.6223 10.6758 27.215 11.7269 27.6504C13.0817 28.2116 14.5337 28.5004 16.0002 28.5004C17.4666 28.5004 18.9187 28.2116 20.2735 27.6504C21.3245 27.215 22.3011 26.6224 23.1703 25.8943Z" fill="white" fill-opacity="0.6"/>
</svg>
