<svg width="30" height="30" viewBox="0 0 30 30" fill="none" xmlns="http://www.w3.org/2000/svg">
<path d="M15 0.833374C18.8491 0.833374 19.3293 0.847541 20.8395 0.918374C22.3482 0.989207 23.3753 1.22579 24.2792 1.57712C25.2142 1.93696 26.0018 2.42429 26.7895 3.21054C27.5099 3.91873 28.0673 4.77537 28.4229 5.72087C28.7728 6.62329 29.0108 7.65179 29.0817 9.16054C29.1482 10.6707 29.1667 11.151 29.1667 15C29.1667 18.8491 29.1525 19.3294 29.0817 20.8395C29.0108 22.3483 28.7728 23.3754 28.4229 24.2792C28.0683 25.2252 27.5108 26.0821 26.7895 26.7895C26.0811 27.5097 25.2245 28.067 24.2792 28.423C23.3767 28.7729 22.3482 29.0109 20.8395 29.0817C19.3293 29.1483 18.8491 29.1667 15 29.1667C11.1509 29.1667 10.6707 29.1525 9.1605 29.0817C7.65175 29.0109 6.62466 28.7729 5.72083 28.423C4.77496 28.068 3.91816 27.5105 3.2105 26.7895C2.48999 26.0815 1.93257 25.2248 1.57708 24.2792C1.22575 23.3768 0.989165 22.3483 0.918332 20.8395C0.851749 19.3294 0.833332 18.8491 0.833332 15C0.833332 11.151 0.847499 10.6707 0.918332 9.16054C0.989165 7.65037 1.22575 6.62471 1.57708 5.72087C1.93158 4.77479 2.48914 3.91791 3.2105 3.21054C3.91837 2.48978 4.77511 1.93232 5.72083 1.57712C6.62466 1.22579 7.65033 0.989207 9.1605 0.918374C10.6707 0.851791 11.1509 0.833374 15 0.833374ZM15 7.91671C13.1214 7.91671 11.3197 8.66298 9.99133 9.99137C8.66294 11.3197 7.91667 13.1214 7.91667 15C7.91667 16.8787 8.66294 18.6803 9.99133 20.0087C11.3197 21.3371 13.1214 22.0834 15 22.0834C16.8786 22.0834 18.6803 21.3371 20.0087 20.0087C21.3371 18.6803 22.0833 16.8787 22.0833 15C22.0833 13.1214 21.3371 11.3197 20.0087 9.99137C18.6803 8.66298 16.8786 7.91671 15 7.91671ZM24.2083 7.56254C24.2083 7.09289 24.0218 6.64247 23.6897 6.31037C23.3576 5.97828 22.9072 5.79171 22.4375 5.79171C21.9678 5.79171 21.5174 5.97828 21.1853 6.31037C20.8532 6.64247 20.6667 7.09289 20.6667 7.56254C20.6667 8.03219 20.8532 8.48261 21.1853 8.81471C21.5174 9.1468 21.9678 9.33337 22.4375 9.33337C22.9072 9.33337 23.3576 9.1468 23.6897 8.81471C24.0218 8.48261 24.2083 8.03219 24.2083 7.56254ZM15 10.75C16.1272 10.75 17.2082 11.1978 18.0052 11.9948C18.8022 12.7919 19.25 13.8729 19.25 15C19.25 16.1272 18.8022 17.2082 18.0052 18.0052C17.2082 18.8023 16.1272 19.25 15 19.25C13.8728 19.25 12.7918 18.8023 11.9948 18.0052C11.1978 17.2082 10.75 16.1272 10.75 15C10.75 13.8729 11.1978 12.7919 11.9948 11.9948C12.7918 11.1978 13.8728 10.75 15 10.75Z" fill="white"/>
</svg>
