<svg width="30" height="25" viewBox="0 0 30 25" fill="none" xmlns="http://www.w3.org/2000/svg">
<path d="M29.8183 3.49996C28.7275 3.99579 27.5517 4.32163 26.3333 4.47746C27.58 3.72663 28.5433 2.53663 28.9967 1.10579C27.8208 1.81413 26.5175 2.30996 25.1433 2.59329C24.0242 1.37496 22.4517 0.666626 20.6667 0.666626C17.3375 0.666626 14.6175 3.38663 14.6175 6.74413C14.6175 7.22579 14.6742 7.69329 14.7733 8.13246C9.73001 7.87746 5.23917 5.45496 2.25 1.78579C1.72584 2.67829 1.42834 3.72663 1.42834 4.83163C1.42834 6.94246 2.49084 8.81246 4.13417 9.87496C3.12834 9.87496 2.19334 9.59163 1.37167 9.16663V9.20913C1.37167 12.1558 3.46834 14.6208 6.24501 15.1733C5.35354 15.4173 4.41764 15.4512 3.51084 15.2725C3.89561 16.4801 4.64918 17.5369 5.66561 18.2941C6.68204 19.0514 7.91022 19.471 9.17751 19.4941C7.02931 21.1947 4.3665 22.114 1.62667 22.1008C1.145 22.1008 0.663338 22.0725 0.181671 22.0158C2.87334 23.7441 6.07501 24.75 9.50334 24.75C20.6667 24.75 26.8008 15.485 26.8008 7.45246C26.8008 7.18329 26.8008 6.92829 26.7867 6.65913C27.9767 5.80913 28.9967 4.73246 29.8183 3.49996Z" fill="white"/>
</svg>
